<mxfile host="app.diagrams.net" modified="2023-10-13T04:53:13.660Z" agent="Mozilla/5.0 (Macintosh; Intel Mac OS X 10_15_7) AppleWebKit/537.36 (KHTML, like Gecko) Chrome/117.0.0.0 Safari/537.36" etag="VtZjEotZrBAWD0j_Pxmx" version="22.0.4" type="device">
  <diagram name="Page-1" id="2YBvvXClWsGukQMizWep">
    <mxGraphModel dx="2314" dy="1062" grid="1" gridSize="10" guides="1" tooltips="1" connect="1" arrows="1" fold="1" page="1" pageScale="1" pageWidth="850" pageHeight="1100" math="0" shadow="0">
      <root>
        <mxCell id="0" />
        <mxCell id="1" parent="0" />
        <mxCell id="aM9ryv3xv72pqoxQDRHE-5" value="Library" style="shape=umlLifeline;perimeter=lifelinePerimeter;whiteSpace=wrap;html=1;container=0;dropTarget=0;collapsible=0;recursiveResize=0;outlineConnect=0;portConstraint=eastwest;newEdgeStyle={&quot;edgeStyle&quot;:&quot;elbowEdgeStyle&quot;,&quot;elbow&quot;:&quot;vertical&quot;,&quot;curved&quot;:0,&quot;rounded&quot;:0};" parent="1" vertex="1">
          <mxGeometry x="290" y="330" width="100" height="510" as="geometry" />
        </mxCell>
        <mxCell id="aM9ryv3xv72pqoxQDRHE-6" value="" style="html=1;points=[];perimeter=orthogonalPerimeter;outlineConnect=0;targetShapes=umlLifeline;portConstraint=eastwest;newEdgeStyle={&quot;edgeStyle&quot;:&quot;elbowEdgeStyle&quot;,&quot;elbow&quot;:&quot;vertical&quot;,&quot;curved&quot;:0,&quot;rounded&quot;:0};" parent="aM9ryv3xv72pqoxQDRHE-5" vertex="1">
          <mxGeometry x="45" y="80" width="10" height="120" as="geometry" />
        </mxCell>
        <mxCell id="2RAFKuc5p9W7dbzHA5lA-27" value="" style="html=1;points=[[0,0,0,0,5],[0,1,0,0,-5],[1,0,0,0,5],[1,1,0,0,-5]];perimeter=orthogonalPerimeter;outlineConnect=0;targetShapes=umlLifeline;portConstraint=eastwest;newEdgeStyle={&quot;curved&quot;:0,&quot;rounded&quot;:0};" vertex="1" parent="aM9ryv3xv72pqoxQDRHE-5">
          <mxGeometry x="45" y="330" width="10" height="140" as="geometry" />
        </mxCell>
        <mxCell id="aM9ryv3xv72pqoxQDRHE-7" value="Initiate Search Request" style="html=1;verticalAlign=bottom;endArrow=block;edgeStyle=elbowEdgeStyle;elbow=horizontal;curved=0;rounded=0;" parent="1" source="aM9ryv3xv72pqoxQDRHE-2" target="aM9ryv3xv72pqoxQDRHE-6" edge="1">
          <mxGeometry relative="1" as="geometry">
            <mxPoint x="265" y="420" as="sourcePoint" />
            <Array as="points">
              <mxPoint x="250" y="410" />
            </Array>
          </mxGeometry>
        </mxCell>
        <mxCell id="2RAFKuc5p9W7dbzHA5lA-2" value="Book" style="shape=umlLifeline;perimeter=lifelinePerimeter;whiteSpace=wrap;html=1;container=0;dropTarget=0;collapsible=0;recursiveResize=0;outlineConnect=0;portConstraint=eastwest;newEdgeStyle={&quot;edgeStyle&quot;:&quot;elbowEdgeStyle&quot;,&quot;elbow&quot;:&quot;vertical&quot;,&quot;curved&quot;:0,&quot;rounded&quot;:0};" vertex="1" parent="1">
          <mxGeometry x="470" y="330" width="100" height="510" as="geometry" />
        </mxCell>
        <mxCell id="2RAFKuc5p9W7dbzHA5lA-3" value="" style="html=1;points=[];perimeter=orthogonalPerimeter;outlineConnect=0;targetShapes=umlLifeline;portConstraint=eastwest;newEdgeStyle={&quot;edgeStyle&quot;:&quot;elbowEdgeStyle&quot;,&quot;elbow&quot;:&quot;vertical&quot;,&quot;curved&quot;:0,&quot;rounded&quot;:0};" vertex="1" parent="2RAFKuc5p9W7dbzHA5lA-2">
          <mxGeometry x="45" y="80" width="10" height="330" as="geometry" />
        </mxCell>
        <mxCell id="2RAFKuc5p9W7dbzHA5lA-9" value="" style="html=1;verticalAlign=bottom;endArrow=block;edgeStyle=elbowEdgeStyle;elbow=vertical;curved=0;rounded=0;" edge="1" parent="1" source="aM9ryv3xv72pqoxQDRHE-6" target="2RAFKuc5p9W7dbzHA5lA-3">
          <mxGeometry relative="1" as="geometry">
            <mxPoint x="400" y="440" as="sourcePoint" />
            <Array as="points">
              <mxPoint x="425" y="430" />
            </Array>
            <mxPoint x="510" y="430" as="targetPoint" />
          </mxGeometry>
        </mxCell>
        <mxCell id="2RAFKuc5p9W7dbzHA5lA-10" value="Ask to collect information" style="edgeLabel;html=1;align=center;verticalAlign=middle;resizable=0;points=[];" vertex="1" connectable="0" parent="2RAFKuc5p9W7dbzHA5lA-9">
          <mxGeometry x="-0.3059" y="-1" relative="1" as="geometry">
            <mxPoint x="21" as="offset" />
          </mxGeometry>
        </mxCell>
        <mxCell id="2RAFKuc5p9W7dbzHA5lA-11" value="Give information on book" style="html=1;verticalAlign=bottom;endArrow=open;dashed=1;endSize=8;edgeStyle=elbowEdgeStyle;elbow=vertical;curved=0;rounded=0;" edge="1" parent="1" source="2RAFKuc5p9W7dbzHA5lA-3" target="aM9ryv3xv72pqoxQDRHE-6">
          <mxGeometry y="10" relative="1" as="geometry">
            <mxPoint x="350" y="460" as="targetPoint" />
            <Array as="points">
              <mxPoint x="435" y="460" />
            </Array>
            <mxPoint x="510" y="460" as="sourcePoint" />
            <mxPoint as="offset" />
          </mxGeometry>
        </mxCell>
        <mxCell id="2RAFKuc5p9W7dbzHA5lA-12" value="Present selection of&lt;br&gt;&amp;nbsp;qualifying book info" style="html=1;verticalAlign=bottom;endArrow=open;dashed=1;endSize=8;edgeStyle=elbowEdgeStyle;elbow=horizontal;curved=0;rounded=0;" edge="1" parent="1" source="aM9ryv3xv72pqoxQDRHE-6" target="aM9ryv3xv72pqoxQDRHE-2">
          <mxGeometry y="10" relative="1" as="geometry">
            <mxPoint x="180" y="470" as="targetPoint" />
            <Array as="points">
              <mxPoint x="250" y="470" />
            </Array>
            <mxPoint x="330" y="470" as="sourcePoint" />
            <mxPoint as="offset" />
          </mxGeometry>
        </mxCell>
        <mxCell id="aM9ryv3xv72pqoxQDRHE-3" value="login" style="html=1;verticalAlign=bottom;startArrow=oval;endArrow=block;startSize=8;edgeStyle=elbowEdgeStyle;elbow=vertical;curved=0;rounded=0;" parent="1" edge="1">
          <mxGeometry relative="1" as="geometry">
            <mxPoint x="90" y="370" as="sourcePoint" />
            <mxPoint x="150" y="370" as="targetPoint" />
          </mxGeometry>
        </mxCell>
        <mxCell id="aM9ryv3xv72pqoxQDRHE-2" value="" style="html=1;points=[];perimeter=orthogonalPerimeter;outlineConnect=0;targetShapes=umlLifeline;portConstraint=eastwest;newEdgeStyle={&quot;edgeStyle&quot;:&quot;elbowEdgeStyle&quot;,&quot;elbow&quot;:&quot;vertical&quot;,&quot;curved&quot;:0,&quot;rounded&quot;:0};" parent="1" vertex="1">
          <mxGeometry x="160" y="400" width="10" height="190" as="geometry" />
        </mxCell>
        <mxCell id="2RAFKuc5p9W7dbzHA5lA-18" value="" style="shape=umlLifeline;perimeter=lifelinePerimeter;whiteSpace=wrap;html=1;container=1;dropTarget=0;collapsible=0;recursiveResize=0;outlineConnect=0;portConstraint=eastwest;newEdgeStyle={&quot;curved&quot;:0,&quot;rounded&quot;:0};participant=umlActor;fillColor=#FFFFFF;" vertex="1" parent="1">
          <mxGeometry x="155" y="330" width="20" height="510" as="geometry" />
        </mxCell>
        <mxCell id="2RAFKuc5p9W7dbzHA5lA-23" value="" style="html=1;points=[[0,0,0,0,5],[0,1,0,0,-5],[1,0,0,0,5],[1,1,0,0,-5]];perimeter=orthogonalPerimeter;outlineConnect=0;targetShapes=umlLifeline;portConstraint=eastwest;newEdgeStyle={&quot;curved&quot;:0,&quot;rounded&quot;:0};" vertex="1" parent="2RAFKuc5p9W7dbzHA5lA-18">
          <mxGeometry x="5" y="40" width="10" height="430" as="geometry" />
        </mxCell>
        <mxCell id="2RAFKuc5p9W7dbzHA5lA-19" value="User" style="text;html=1;strokeColor=none;fillColor=none;align=center;verticalAlign=middle;whiteSpace=wrap;rounded=0;" vertex="1" parent="1">
          <mxGeometry x="135" y="310" width="60" height="30" as="geometry" />
        </mxCell>
        <mxCell id="2RAFKuc5p9W7dbzHA5lA-20" value="Request book checkout" style="html=1;verticalAlign=bottom;endArrow=block;edgeStyle=elbowEdgeStyle;elbow=horizontal;curved=0;rounded=0;" edge="1" parent="1">
          <mxGeometry relative="1" as="geometry">
            <mxPoint x="170" y="510" as="sourcePoint" />
            <Array as="points">
              <mxPoint x="250" y="510" />
            </Array>
            <mxPoint x="335" y="510" as="targetPoint" />
          </mxGeometry>
        </mxCell>
        <mxCell id="2RAFKuc5p9W7dbzHA5lA-21" value="Change book status&lt;br&gt;&amp;nbsp;to checked out" style="html=1;verticalAlign=bottom;endArrow=block;edgeStyle=elbowEdgeStyle;elbow=horizontal;curved=0;rounded=0;" edge="1" parent="1" source="aM9ryv3xv72pqoxQDRHE-6">
          <mxGeometry y="-20" relative="1" as="geometry">
            <mxPoint x="350" y="520" as="sourcePoint" />
            <Array as="points">
              <mxPoint x="430" y="520" />
            </Array>
            <mxPoint x="515" y="520" as="targetPoint" />
            <mxPoint as="offset" />
          </mxGeometry>
        </mxCell>
        <mxCell id="2RAFKuc5p9W7dbzHA5lA-22" value="Give ownership of book" style="html=1;verticalAlign=bottom;endArrow=block;edgeStyle=elbowEdgeStyle;elbow=horizontal;curved=0;rounded=0;" edge="1" parent="1" source="2RAFKuc5p9W7dbzHA5lA-3" target="aM9ryv3xv72pqoxQDRHE-2">
          <mxGeometry x="-0.5072" y="10" relative="1" as="geometry">
            <mxPoint x="470" y="550" as="sourcePoint" />
            <Array as="points">
              <mxPoint x="280" y="570" />
              <mxPoint x="430" y="550" />
              <mxPoint x="370" y="550" />
            </Array>
            <mxPoint x="180" y="550" as="targetPoint" />
            <mxPoint as="offset" />
          </mxGeometry>
        </mxCell>
        <mxCell id="2RAFKuc5p9W7dbzHA5lA-24" value="book checkout" style="shape=umlFrame;whiteSpace=wrap;html=1;pointerEvents=0;" vertex="1" parent="1">
          <mxGeometry x="60" y="490" width="520" height="100" as="geometry" />
        </mxCell>
        <mxCell id="2RAFKuc5p9W7dbzHA5lA-25" value="Request to read book" style="html=1;verticalAlign=bottom;endArrow=block;edgeStyle=elbowEdgeStyle;elbow=horizontal;curved=0;rounded=0;" edge="1" parent="1">
          <mxGeometry x="-0.0286" y="-10" relative="1" as="geometry">
            <mxPoint x="170" y="610" as="sourcePoint" />
            <Array as="points">
              <mxPoint x="300" y="610" />
            </Array>
            <mxPoint x="520" y="610" as="targetPoint" />
            <mxPoint as="offset" />
          </mxGeometry>
        </mxCell>
        <mxCell id="2RAFKuc5p9W7dbzHA5lA-26" value="Give information on book" style="html=1;verticalAlign=bottom;endArrow=open;dashed=1;endSize=8;edgeStyle=elbowEdgeStyle;elbow=vertical;curved=0;rounded=0;" edge="1" parent="1" source="2RAFKuc5p9W7dbzHA5lA-3" target="2RAFKuc5p9W7dbzHA5lA-23">
          <mxGeometry y="10" relative="1" as="geometry">
            <mxPoint x="340" y="640" as="targetPoint" />
            <Array as="points">
              <mxPoint x="430" y="640" />
            </Array>
            <mxPoint x="510" y="640" as="sourcePoint" />
            <mxPoint as="offset" />
          </mxGeometry>
        </mxCell>
        <mxCell id="2RAFKuc5p9W7dbzHA5lA-28" value="Submit book review" style="html=1;verticalAlign=bottom;endArrow=block;edgeStyle=elbowEdgeStyle;elbow=horizontal;curved=0;rounded=0;" edge="1" parent="1">
          <mxGeometry relative="1" as="geometry">
            <mxPoint x="170" y="670" as="sourcePoint" />
            <Array as="points">
              <mxPoint x="250" y="670" />
            </Array>
            <mxPoint x="335" y="670" as="targetPoint" />
          </mxGeometry>
        </mxCell>
        <mxCell id="2RAFKuc5p9W7dbzHA5lA-29" value="Edit book information&lt;br&gt;&amp;nbsp;to include review" style="html=1;verticalAlign=bottom;endArrow=block;edgeStyle=elbowEdgeStyle;elbow=horizontal;curved=0;rounded=0;" edge="1" parent="1">
          <mxGeometry x="-0.0303" y="-10" relative="1" as="geometry">
            <mxPoint x="350" y="680" as="sourcePoint" />
            <Array as="points">
              <mxPoint x="430" y="680" />
            </Array>
            <mxPoint x="515" y="680" as="targetPoint" />
            <mxPoint as="offset" />
          </mxGeometry>
        </mxCell>
        <mxCell id="2RAFKuc5p9W7dbzHA5lA-30" value="Request to check book in" style="html=1;verticalAlign=bottom;endArrow=block;edgeStyle=elbowEdgeStyle;elbow=horizontal;curved=0;rounded=0;" edge="1" parent="1">
          <mxGeometry x="-0.0303" y="-10" relative="1" as="geometry">
            <mxPoint x="170" y="700" as="sourcePoint" />
            <Array as="points">
              <mxPoint x="250" y="700" />
            </Array>
            <mxPoint x="335" y="700" as="targetPoint" />
            <mxPoint as="offset" />
          </mxGeometry>
        </mxCell>
        <mxCell id="2RAFKuc5p9W7dbzHA5lA-31" value="Change status to checked in" style="html=1;verticalAlign=bottom;endArrow=block;edgeStyle=elbowEdgeStyle;elbow=horizontal;curved=0;rounded=0;" edge="1" parent="1">
          <mxGeometry x="-0.0303" y="-10" relative="1" as="geometry">
            <mxPoint x="350" y="720" as="sourcePoint" />
            <Array as="points">
              <mxPoint x="430" y="720" />
            </Array>
            <mxPoint x="515" y="720" as="targetPoint" />
            <mxPoint as="offset" />
          </mxGeometry>
        </mxCell>
        <mxCell id="2RAFKuc5p9W7dbzHA5lA-35" value="Notify User of fees &lt;br&gt;if necessary" style="html=1;verticalAlign=bottom;endArrow=block;edgeStyle=elbowEdgeStyle;elbow=horizontal;curved=0;rounded=0;" edge="1" parent="1">
          <mxGeometry x="0.0303" y="10" relative="1" as="geometry">
            <mxPoint x="335" y="750" as="sourcePoint" />
            <Array as="points">
              <mxPoint x="250" y="750" />
            </Array>
            <mxPoint x="170" y="750" as="targetPoint" />
            <mxPoint as="offset" />
          </mxGeometry>
        </mxCell>
        <mxCell id="2RAFKuc5p9W7dbzHA5lA-36" value="Pay Fee" style="html=1;verticalAlign=bottom;endArrow=open;dashed=1;endSize=8;edgeStyle=elbowEdgeStyle;elbow=vertical;curved=0;rounded=0;" edge="1" parent="1" source="2RAFKuc5p9W7dbzHA5lA-23" target="2RAFKuc5p9W7dbzHA5lA-27">
          <mxGeometry x="-0.0303" y="-10" relative="1" as="geometry">
            <mxPoint x="190" y="820" as="targetPoint" />
            <Array as="points">
              <mxPoint x="310" y="770" />
              <mxPoint x="280" y="790" />
              <mxPoint x="240" y="820" />
            </Array>
            <mxPoint x="260" y="790" as="sourcePoint" />
            <mxPoint as="offset" />
          </mxGeometry>
        </mxCell>
        <mxCell id="2RAFKuc5p9W7dbzHA5lA-38" value="Book search" style="shape=umlFrame;whiteSpace=wrap;html=1;pointerEvents=0;" vertex="1" parent="1">
          <mxGeometry x="60" y="390" width="520" height="100" as="geometry" />
        </mxCell>
        <mxCell id="2RAFKuc5p9W7dbzHA5lA-39" value="Reading Book" style="shape=umlFrame;whiteSpace=wrap;html=1;pointerEvents=0;" vertex="1" parent="1">
          <mxGeometry x="60" y="590" width="520" height="60" as="geometry" />
        </mxCell>
        <mxCell id="2RAFKuc5p9W7dbzHA5lA-40" value="Review Book" style="shape=umlFrame;whiteSpace=wrap;html=1;pointerEvents=0;" vertex="1" parent="1">
          <mxGeometry x="60" y="650" width="520" height="40" as="geometry" />
        </mxCell>
        <mxCell id="2RAFKuc5p9W7dbzHA5lA-41" value="Book checkin" style="shape=umlFrame;whiteSpace=wrap;html=1;pointerEvents=0;" vertex="1" parent="1">
          <mxGeometry x="60" y="690" width="520" height="40" as="geometry" />
        </mxCell>
        <mxCell id="2RAFKuc5p9W7dbzHA5lA-44" value="Fine Payment" style="shape=umlFrame;whiteSpace=wrap;html=1;pointerEvents=0;" vertex="1" parent="1">
          <mxGeometry x="60" y="730" width="520" height="50" as="geometry" />
        </mxCell>
      </root>
    </mxGraphModel>
  </diagram>
</mxfile>
